<?xml version="1.0" encoding="UTF-8"?>
<svg viewBox="0 0 744.09448819 1052.3622047" xmlns="http://www.w3.org/2000/svg" xmlns:xlink="http://www.w3.org/1999/xlink">
 <defs>
  <linearGradient id="am" x1="1352.9" x2="1444.5" y1="918.64" y2="743.16" gradientUnits="userSpaceOnUse">
   <stop stop-color="#2f322a" offset="0"/>
   <stop stop-color="#717466" offset="1"/>
  </linearGradient>
  <linearGradient id="c">
   <stop stop-color="#e0e7cd" offset="0"/>
   <stop stop-color="#e0e7cd" stop-opacity="0" offset="1"/>
  </linearGradient>
  <linearGradient id="i">
   <stop stop-color="#947251" offset="0"/>
   <stop stop-color="#947251" stop-opacity="0" offset="1"/>
  </linearGradient>
  <linearGradient id="g" x1="-314.83" x2="-273.77" gradientUnits="userSpaceOnUse" spreadMethod="reflect">
   <stop stop-color="#010000" offset="0"/>
   <stop stop-color="#010000" stop-opacity="0" offset="1"/>
  </linearGradient>
  <linearGradient id="e">
   <stop stop-color="#fafdf2" offset="0"/>
   <stop stop-color="#59544f" stop-opacity=".83505" offset="1"/>
  </linearGradient>
  <linearGradient id="ac" x1="-485.6" x2="-415.7" y1="1112.4" y2="1286.7" gradientUnits="userSpaceOnUse" spreadMethod="reflect">
   <stop stop-color="#1b0d0b" offset="0"/>
   <stop stop-color="#544444" offset=".5"/>
   <stop stop-color="#e5e8ed" offset="1"/>
  </linearGradient>
  <linearGradient id="h">
   <stop stop-color="#e8d39f" offset="0"/>
   <stop stop-color="#e8d39f" stop-opacity="0" offset="1"/>
  </linearGradient>
  <linearGradient id="a">
   <stop stop-color="#515a5d" offset="0"/>
   <stop stop-color="#515a5d" stop-opacity="0" offset="1"/>
  </linearGradient>
  <linearGradient id="b" x1="310.57" x2="319.9" gradientUnits="userSpaceOnUse" xlink:href="#a"/>
  <linearGradient id="aj" x1="310.57" x2="319.9" gradientTransform="matrix(.73509 3.8862e-17 3.7643e-16 .36945 -357.56 658.59)" gradientUnits="userSpaceOnUse" xlink:href="#a"/>
  <linearGradient id="ak" x1="310.57" x2="319.9" gradientTransform="matrix(.40318 3.7145e-16 3.1543e-16 .45735 -60.761 568.88)" gradientUnits="userSpaceOnUse" xlink:href="#a"/>
  <linearGradient id="al" x1="310.57" x2="319.9" gradientTransform="matrix(.47414 9.9389e-16 9.6838e-16 .49148 553.18 144.4)" gradientUnits="userSpaceOnUse" xlink:href="#a"/>
  <linearGradient id="ag" x1="310.57" x2="319.9" gradientTransform="matrix(.73509 7.9664e-16 3.5034e-16 .36945 -357.56 658.59)" gradientUnits="userSpaceOnUse" xlink:href="#a"/>
  <linearGradient id="ah" x1="310.57" x2="319.9" gradientTransform="matrix(.40318 2.6536e-16 2.2633e-16 .45735 -60.761 568.88)" gradientUnits="userSpaceOnUse" xlink:href="#a"/>
  <linearGradient id="ai" x1="310.57" x2="319.9" gradientTransform="matrix(.47414 3.4191e-16 5.2449e-16 .49148 553.18 144.4)" gradientUnits="userSpaceOnUse" xlink:href="#a"/>
  <linearGradient id="ad" x1="310.57" x2="319.9" gradientTransform="matrix(.73509 -4.6077e-17 3.8519e-16 .36945 -357.56 658.59)" gradientUnits="userSpaceOnUse" xlink:href="#a"/>
  <linearGradient id="ae" x1="310.57" x2="319.9" gradientTransform="matrix(.40318 4.0126e-16 1.8511e-17 .45735 -60.761 568.88)" gradientUnits="userSpaceOnUse" xlink:href="#a"/>
  <linearGradient id="af" x1="310.57" x2="319.9" gradientTransform="matrix(.47414 5.3358e-16 5.7189e-16 .49148 553.18 144.4)" gradientUnits="userSpaceOnUse" xlink:href="#a"/>
  <linearGradient id="z" x2="0" y1="1265.2" y2="1298.4" gradientTransform="matrix(.46241 5.5921e-9 2.023e-8 .31661 35.349 806.33)" gradientUnits="userSpaceOnUse" xlink:href="#e" spreadMethod="reflect"/>
  <linearGradient id="aa" x2="0" y1="1265.2" y2="1298.4" gradientTransform="matrix(.39163 6.7084e-8 2.6313e-8 .29459 252.11 805.17)" gradientUnits="userSpaceOnUse" xlink:href="#e" spreadMethod="reflect"/>
  <linearGradient id="ab" x2="0" y1="1265.2" y2="1298.4" gradientTransform="matrix(.46241 -1.9148e-8 -1.8132e-8 .31661 296.86 680.61)" gradientUnits="userSpaceOnUse" xlink:href="#e" spreadMethod="reflect"/>
  <linearGradient id="w" x1="310.57" x2="319.9" gradientTransform="matrix(.73509 -9.6765e-17 3.6261e-16 .36945 -357.56 658.59)" gradientUnits="userSpaceOnUse" xlink:href="#a"/>
  <linearGradient id="x" x1="310.57" x2="319.9" gradientTransform="matrix(.40318 2.9239e-16 3.4576e-17 .45735 -60.761 568.88)" gradientUnits="userSpaceOnUse" xlink:href="#a"/>
  <linearGradient id="y" x1="310.57" x2="319.9" gradientTransform="matrix(.47414 3.5619e-16 4.771e-16 .49148 553.18 144.4)" gradientUnits="userSpaceOnUse" xlink:href="#a"/>
  <linearGradient id="r" x1="-125.01" x2="-125.38" y1="540.54" y2="557.44" gradientTransform="matrix(1.8333 0 0 -1.3764 791.39 1383.9)" gradientUnits="userSpaceOnUse" xlink:href="#h"/>
  <linearGradient id="s" x1="-125.01" x2="-125.38" y1="540.54" y2="557.44" gradientTransform="matrix(1.8333 0 0 1.3764 791.39 -161.04)" gradientUnits="userSpaceOnUse" xlink:href="#h"/>
  <linearGradient id="t" x1="310.57" x2="319.9" gradientTransform="matrix(.73509 -4.4194e-16 2.4023e-16 .36945 -357.56 658.59)" gradientUnits="userSpaceOnUse" xlink:href="#a"/>
  <linearGradient id="u" x1="310.57" x2="319.9" gradientTransform="matrix(.40318 -6.0961e-17 2.1703e-16 .45735 -60.761 568.88)" gradientUnits="userSpaceOnUse" xlink:href="#a"/>
  <linearGradient id="v" x1="310.57" x2="319.9" gradientTransform="matrix(.47414 3.3741e-17 3.763e-16 .49148 553.18 144.4)" gradientUnits="userSpaceOnUse" xlink:href="#a"/>
  <radialGradient id="d" cx="-138.37" cy="892.23" r="6.5919" gradientTransform="matrix(1.7041 -2.2423e-5 1.2579e-5 .95599 97.419 39.262)" gradientUnits="userSpaceOnUse">
   <stop stop-color="#615d58" offset="0"/>
   <stop stop-color="#615d58" stop-opacity="0" offset="1"/>
  </radialGradient>
  <radialGradient id="f" cx="-355.08" cy="1318.5" r="73.78" gradientTransform="matrix(1.4088 .15124 -.08826 .82216 261.77 265.09)" gradientUnits="userSpaceOnUse">
   <stop stop-color="#0a0700" offset="0"/>
   <stop stop-color="#6c6661" offset="1"/>
  </radialGradient>
  <radialGradient id="j" cx="-1311.4" cy="1158" r="186.03" gradientTransform="matrix(3.4334 -.18432 .1842 3.431 2978 -3058.3)" gradientUnits="userSpaceOnUse">
   <stop stop-color="#fff" offset="0"/>
   <stop stop-color="#eff0ef" offset="1"/>
  </radialGradient>
  <radialGradient id="k" cx="-238.87" cy="89.08" r="24.508" gradientTransform="matrix(6.1541 1.8357 -.11427 .20373 1208.8 514.17)" gradientUnits="userSpaceOnUse" xlink:href="#c"/>
  <radialGradient id="l" cx="-238.87" cy="89.08" r="24.508" gradientTransform="matrix(5.8441 2.1151 -.12321 .18389 1244.7 618.18)" gradientUnits="userSpaceOnUse" xlink:href="#c"/>
  <radialGradient id="m" cx="-238.87" cy="89.08" r="24.508" gradientTransform="matrix(-2.2477 1.5192 .074349 .084707 -741.21 452.11)" gradientUnits="userSpaceOnUse" xlink:href="#c"/>
  <radialGradient id="n" cx="-238.87" cy="89.08" r="24.508" gradientTransform="matrix(1.4156 2.4834 -.14379 .045766 147.04 720.2)" gradientUnits="userSpaceOnUse" xlink:href="#c"/>
  <radialGradient id="o" cx="-238.87" cy="89.08" r="24.508" gradientTransform="matrix(3.1484 2.2659 -.10414 .12634 523.4 620.04)" gradientUnits="userSpaceOnUse" xlink:href="#c"/>
  <radialGradient id="p" cx="-278.02" cy="97.823" r="63.741" gradientTransform="matrix(-3.2706 -.43715 .057914 -.43329 -1075.5 46.077)" gradientUnits="userSpaceOnUse" xlink:href="#i"/>
  <radialGradient id="q" cx="-278.02" cy="97.823" r="63.741" gradientTransform="matrix(3.2706 .43715 -.057914 .43329 638.93 174.97)" gradientUnits="userSpaceOnUse" xlink:href="#i"/>
 </defs>
 <g transform="matrix(.22503 0 0 .21443 -45.231 6.908)" stroke="#393031" stroke-opacity=".6828" stroke-width=".629">
  <path d="m1395.4 831.91c-94.435 0.74854-155.55 13.273-186.28 41.125s-2.375 90.531-2.375 90.531h389.88s30.097-45.714 0-82.625c-31.906-39.13-97.671-49.031-194.94-49.031-2.1018 0-4.1956-0.01653-6.2813 0z" fill="url(#am)"/>
  <path transform="matrix(1.0628 0 0 1 -87.989 85.247)" d="m1581.6 880.63a179.86 29.885 0 1 1 -7e-4 -0.08289" fill="#0f0c0f"/>
 </g>
 <g transform="matrix(.58281 0 0 .19945 88.856 97.401)">
  <path transform="matrix(.77768,.62865,-.54106,.84098,0,0)" d="m702.11 427.09h1.0661a1.6789 1.6789 0 0 1 1.6789 1.6789v179.41a1.6789 1.6789 0 0 1 -1.6789 1.6789h-1.0661a1.6789 1.6789 0 0 1 -1.6789 -1.6789v-179.41a1.6789 1.6789 0 0 1 1.6789 -1.6789" fill="url(#al)" opacity=".41081"/>
  <path d="m313.98 575.18h2.4982a3.416 3.416 0 0 1 3.416 3.416v365.05a3.416 3.416 0 0 1 -3.416 3.416h-2.4982a3.416 3.416 0 0 1 -3.416 -3.416v-365.05a3.416 3.416 0 0 1 3.416 -3.416" fill="url(#b)" opacity=".41081"/>
  <path transform="matrix(-.67337,.7393,.4281,.90373,0,0)" d="m66.016 831.94h0.63716a1.5623 1.5623 0 0 1 1.5623 1.5623v166.96a1.5623 1.5623 0 0 1 -1.5623 1.5623h-0.63716a1.5623 1.5623 0 0 1 -1.5623 -1.5623v-166.96a1.5623 1.5623 0 0 1 1.5623 -1.5623" fill="url(#ak)" opacity=".41081"/>
  <path transform="matrix(-.9252,.37948,.22682,.97394,0,0)" d="m-129.26 871.09h6.8586v137.39h-6.8586z" fill="url(#aj)" opacity=".41081"/>
  <path d="m313.98 575.18h2.4982a3.416 3.416 0 0 1 3.416 3.416v365.05a3.416 3.416 0 0 1 -3.416 3.416h-2.4982a3.416 3.416 0 0 1 -3.416 -3.416v-365.05a3.416 3.416 0 0 1 3.416 -3.416" fill="url(#b)" opacity=".41081"/>
  <path d="m310.02 799.14h8.9444a1.8706 1.8706 0 0 1 1.8706 1.8706v4.5167a1.8706 1.8706 0 0 1 -1.8706 1.8706h-8.9444a1.8706 1.8706 0 0 1 -1.8706 -1.8706v-4.5167a1.8706 1.8706 0 0 1 1.8706 -1.8706" fill="#d1d1cf"/>
  <path d="m311.16 930.22h7.6873a5.4421 5.4421 0 0 1 5.4421 5.4421v8.7587a5.4421 5.4421 0 0 1 -5.4421 5.4421h-7.6873a5.4421 5.4421 0 0 1 -5.4421 -5.4421v-8.7587a5.4421 5.4421 0 0 1 5.4421 -5.4421" fill="#29342c"/>
  <path transform="matrix(.93801,-.3466,.3342,.9425,0,0)" d="m41.594 1019.4h2.9194a3.7795 3.7795 0 0 1 3.7795 3.7795v6.0828a3.7795 3.7795 0 0 1 -3.7795 3.7795h-2.9194a3.7795 3.7795 0 0 1 -3.7795 -3.7795v-6.0828a3.7795 3.7795 0 0 1 3.7795 -3.7795" fill="#29342c"/>
  <path transform="matrix(.98869,-.14999,.13694,.99058,0,0)" d="m211.44 964.56h2.9194a3.7794 3.7794 0 0 1 3.7794 3.7794v6.0828a3.7794 3.7794 0 0 1 -3.7794 3.7794h-2.9194a3.7794 3.7794 0 0 1 -3.7794 -3.7794v-6.0828a3.7794 3.7794 0 0 1 3.7794 -3.7794" fill="#29342c"/>
  <path transform="matrix(-.85635,-.5164,-.50507,.86308,0,0)" d="m-671.45 692.86h2.9194a3.7794 3.7794 0 0 1 3.7794 3.7794v6.0828a3.7794 3.7794 0 0 1 -3.7794 3.7794h-2.9194a3.7794 3.7794 0 0 1 -3.7794 -3.7794v-6.0828a3.7794 3.7794 0 0 1 3.7794 -3.7794" fill="#29342c"/>
 </g>
 <g transform="matrix(.64896 0 0 .60706 268.39 6.3204)">
  <path transform="matrix(.69943 .13983 -.20058 .48757 24.628 11.311)" d="m-94.286 280.93a172.86 71.429 0 1 1 -6.6e-4 -0.19809" fill="#d6c886" stroke="#fff"/>
  <path d="m-277.56 67.969c-32.754 0.30825-56.586 6.6541-61.344 18.219-4.6811 11.379 10.132 25.281 36.844 37.5l88.538-16.932-51.6-38.6c-4.2724-0.14537-8.4157-0.22535-12.438-0.1875z" fill="url(#q)"/>
  <path d="m-159.01 153.08c32.754-0.30825 56.586-6.6541 61.344-18.219 4.6811-11.379-10.132-25.281-36.844-37.5l-81.387 11.335 44.449 44.196c4.2724 0.14537 8.4157 0.22535 12.438 0.1875z" fill="url(#p)"/>
  <path d="m-264.48 68.327c-3.6974 0.47262-1.6622 4.7434 1.0721 4.936 14.775 11.927 31.891 21.042 46.443 33.223 1.7617 1.6808 4.1702 0.96945 6.5167 2.0414 2.4957 0.48133 1.8873 0.94496-0.11442-0.24832-7.9937-9.8154-20.171-15.274-30.337-22.774-2.3995-1.894-4.8431-3.714-7.4506-5.3552-5.5164-3.7721-10.761-7.8728-16.13-11.823z" fill="url(#o)"/>
  <path d="m-214.59 108.46c-3.1719-0.92515-3.6086 2.4633-1.5241 3.492 6.0196 12.477 15.259 23.942 20.979 36.506 0.59317 1.652 2.8538 1.9983 4.206 3.4572 1.7555 1.1331 1.0477 1.226 0.02851-0.19572-1.6371-8.8869-8.7048-16.392-13.187-24.527-0.99838-1.9989-2.0675-3.9654-3.3533-5.8726-2.5756-4.2255-4.7768-8.5697-7.149-12.859z" fill="url(#n)"/>
  <path d="m-178.74 82.198c2.6396 0.31688 1.1867 3.1803-0.76536 3.3095-10.548 7.9971-22.768 14.108-33.156 22.275-1.2577 1.1269-2.9772 0.64999-4.6523 1.3687-1.7817 0.32272-1.3474 0.63357 0.08168-0.16649 5.7068-6.581 14.4-10.241 21.658-15.269 1.713-1.2699 3.4576-2.4901 5.319-3.5906 3.9382-2.5291 7.6826-5.2785 11.515-7.927z" fill="url(#m)"/>
  <path d="m-212.41 108.21c-5.7717 1.468-1.0169 6.374 3.4402 5.9722 27.875 11.558 58.531 19.015 86.137 30.945 3.4138 1.7042 7.0331 0.23909 11.174 1.0376 4.1746 0.01842 3.3593 0.7466-0.27018-0.28618-16.252-10.493-37.705-14.505-56.639-21.566-4.5121-1.8227-9.0693-3.5416-13.827-4.9965-10.17-3.4562-20.019-7.3906-30.015-11.106z" fill="url(#l)" opacity=".41081"/>
  <path d="m-324.43 74.918c-5.8368 1.9611-0.61404 6.8342 3.943 6.0962 29.454 10.315 61.489 16.084 90.691 26.813 3.6266 1.5696 7.2499-0.23791 11.563 0.31989 4.295-0.27226 3.5057 0.55737-0.29728-0.28476-17.427-9.9978-39.763-12.755-59.716-18.923-4.7643-1.6186-9.5679-3.1238-14.56-4.335-10.695-2.9562-21.091-6.4424-31.623-9.6862z" fill="url(#k)" opacity=".41081"/>
  <path d="m-219.93 125.99c2.999-1.9994 2.3326-6.9977 5.3316-10.663s6.6645-1.6661 6.6645-3.9987-2.999-3.9987-6.6645-5.3316-4.9984-1.9994-7.9974 0-2.999 3.6655-3.9987 7.9974-1.6661 6.3313 0 9.3303 3.6655 4.6652 6.6645 2.6658z" fill="#515a5d" fill-rule="evenodd"/>
 </g>
 <g transform="matrix(.64896 0 0 .53857 -80.923 -229.28)">
  <path transform="matrix(.77768,.62865,-.54106,.84098,0,0)" d="m702.11 427.09h1.0661a1.6789 1.6789 0 0 1 1.6789 1.6789v179.41a1.6789 1.6789 0 0 1 -1.6789 1.6789h-1.0661a1.6789 1.6789 0 0 1 -1.6789 -1.6789v-179.41a1.6789 1.6789 0 0 1 1.6789 -1.6789" fill="url(#ai)" opacity=".41081"/>
  <path d="m313.98 575.18h2.4982a3.416 3.416 0 0 1 3.416 3.416v365.05a3.416 3.416 0 0 1 -3.416 3.416h-2.4982a3.416 3.416 0 0 1 -3.416 -3.416v-365.05a3.416 3.416 0 0 1 3.416 -3.416" fill="url(#b)" opacity=".41081"/>
  <path transform="matrix(-.67337,.7393,.4281,.90373,0,0)" d="m66.016 831.94h0.63716a1.5623 1.5623 0 0 1 1.5623 1.5623v166.96a1.5623 1.5623 0 0 1 -1.5623 1.5623h-0.63716a1.5623 1.5623 0 0 1 -1.5623 -1.5623v-166.96a1.5623 1.5623 0 0 1 1.5623 -1.5623" fill="url(#ah)" opacity=".41081"/>
  <path transform="matrix(-.9252,.37948,.22682,.97394,0,0)" d="m-129.26 871.09h6.8586v137.39h-6.8586z" fill="url(#ag)" opacity=".41081"/>
  <path d="m313.98 575.18h2.4982a3.416 3.416 0 0 1 3.416 3.416v365.05a3.416 3.416 0 0 1 -3.416 3.416h-2.4982a3.416 3.416 0 0 1 -3.416 -3.416v-365.05a3.416 3.416 0 0 1 3.416 -3.416" fill="url(#b)" opacity=".41081"/>
  <path d="m310.02 799.14h8.9444a1.8706 1.8706 0 0 1 1.8706 1.8706v4.5167a1.8706 1.8706 0 0 1 -1.8706 1.8706h-8.9444a1.8706 1.8706 0 0 1 -1.8706 -1.8706v-4.5167a1.8706 1.8706 0 0 1 1.8706 -1.8706" fill="#d1d1cf"/>
  <path d="m311.16 930.22h7.6873a5.4421 5.4421 0 0 1 5.4421 5.4421v8.7587a5.4421 5.4421 0 0 1 -5.4421 5.4421h-7.6873a5.4421 5.4421 0 0 1 -5.4421 -5.4421v-8.7587a5.4421 5.4421 0 0 1 5.4421 -5.4421" fill="#29342c"/>
  <path transform="matrix(.93801,-.3466,.3342,.9425,0,0)" d="m41.594 1019.4h2.9194a3.7795 3.7795 0 0 1 3.7795 3.7795v6.0828a3.7795 3.7795 0 0 1 -3.7795 3.7795h-2.9194a3.7795 3.7795 0 0 1 -3.7795 -3.7795v-6.0828a3.7795 3.7795 0 0 1 3.7795 -3.7795" fill="#29342c"/>
  <path transform="matrix(.98869,-.14999,.13694,.99058,0,0)" d="m211.44 964.56h2.9194a3.7794 3.7794 0 0 1 3.7794 3.7794v6.0828a3.7794 3.7794 0 0 1 -3.7794 3.7794h-2.9194a3.7794 3.7794 0 0 1 -3.7794 -3.7794v-6.0828a3.7794 3.7794 0 0 1 3.7794 -3.7794" fill="#29342c"/>
  <path transform="matrix(-.85635,-.5164,-.50507,.86308,0,0)" d="m-671.45 692.86h2.9194a3.7794 3.7794 0 0 1 3.7794 3.7794v6.0828a3.7794 3.7794 0 0 1 -3.7794 3.7794h-2.9194a3.7794 3.7794 0 0 1 -3.7794 -3.7794v-6.0828a3.7794 3.7794 0 0 1 3.7794 -3.7794" fill="#29342c"/>
 </g>
 <g transform="matrix(-.73623 .20036 .12396 1.163 -93.963 -861.81)">
  <g transform="matrix(.97999 -.19904 .19904 .97999 -113.05 -396.27)">
   <path d="m-335.47 1268.8c-21.526 0.575-43.645 0.3271-64.467 6.065-3.9311 0.4662-7.1738 5.7847-2.5799 7.9081 12.305 5.3164 26.391 5.1113 39.634 6.4127 31.352 1.348 63.213 1.8705 94.126-3.7667 3.632-0.9188 11.342-2.1703 9.7733-7.4325-4.8278-5.3105-13.324-4.8242-19.941-6.3325-18.669-2.428-37.69-2.9088-56.545-2.8541z" fill="url(#f)" stroke="#2a3039" stroke-width=".96126"/>
   <path d="m-335.65 1233.3c-36.455 0.2826-65.703 3.9462-68.469 8.5h-0.21875v0.5625c-0.00191 0.0358 0 0.0903 0 0.125s-0.00191 0.0892 0 0.125v37.75c0.50742-5.0179 33.147-9.0625 73.281-9.0625 36.436 0 66.7 3.3464 72.344 7.7187v-35.031c0.62101-0.4811 0.9375-0.997 0.9375-1.5v-0.0312c-0.11198-5.0636-32.902-9.1563-73.281-9.1563h-4.5938zm-68.688 47.312v1.2188h0.78125c-0.46721-0.4-0.7393-0.8039-0.78125-1.2188z" fill="#fff"/>
   <path d="m-335.65 1233.3c-36.455 0.2826-65.703 3.9462-68.469 8.5h-0.21875v0.5625c-0.00191 0.0358 0 0.0903 0 0.125s-0.00191 0.0892 0 0.125v37.75c0.50742-5.0179 33.147-9.0625 73.281-9.0625 36.436 0 66.7 3.3464 72.344 7.7187v-35.031c0.62101-0.4811 0.9375-0.997 0.9375-1.5v-0.0312c-0.11198-5.0636-32.902-9.1563-73.281-9.1563h-4.5938zm-68.688 47.312v1.2188h0.78125c-0.46721-0.4-0.7393-0.8039-0.78125-1.2188z" fill="url(#g)" stroke="#2a3039"/>
  </g>
  <path d="m-195.68 886.44c-38.389 8.9844-67.284 20.762-64.888 26.533l0.01533 0.03693c4.6647-6.3862 32.069-16.677 66.659-24.593 38.263-8.7567 71.44-11.483 75.729-6.2344l0.26202 0.48576c0.66639-0.91231 0.90419-1.746 0.59874-2.4817l-0.33245-0.51008c-4.2894-5.2485-37.467-2.5223-75.729 6.2344l-2.3143 0.52963z" fill="#615d58" stroke="#f4f4f6" stroke-opacity=".6828" stroke-width=".6531"/>
  <path transform="matrix(.60394 0 0 .66278 -52.255 300.11)" d="m-132.28 892.23a6.0919 6.382 0 1 1 -2e-5 -0.0177" fill="url(#d)" stroke="#f4f4f6"/>
  <path transform="matrix(.60394 0 0 .66278 -128.26 314.04)" d="m-132.28 892.23a6.0919 6.382 0 1 1 -2e-5 -0.0177" fill="url(#d)" stroke="#f4f4f6"/>
  <path d="m-194.63 892.82c-38.389 8.9844-67.284 20.762-64.888 26.533l0.01533 0.03693c4.6647-6.3862 32.069-16.677 66.659-24.593 38.263-8.7567 71.44-11.483 75.729-6.2344l0.26202 0.48576c0.66639-0.91231 0.90419-1.746 0.59874-2.4817l-0.33245-0.51008c-4.2894-5.2485-37.467-2.5223-75.729 6.2344l-2.3143 0.52963z" fill="#615d58" stroke="#f4f4f6" stroke-opacity=".6828" stroke-width=".6531"/>
 </g>
 <g transform="matrix(.64896 0 0 .33172 -48.03 -16.295)">
  <path transform="matrix(.77768,.62865,-.54106,.84098,0,0)" d="m702.11 427.09h1.0661a1.6789 1.6789 0 0 1 1.6789 1.6789v179.41a1.6789 1.6789 0 0 1 -1.6789 1.6789h-1.0661a1.6789 1.6789 0 0 1 -1.6789 -1.6789v-179.41a1.6789 1.6789 0 0 1 1.6789 -1.6789" fill="url(#af)" opacity=".41081"/>
  <path d="m313.98 575.18h2.4982a3.416 3.416 0 0 1 3.416 3.416v365.05a3.416 3.416 0 0 1 -3.416 3.416h-2.4982a3.416 3.416 0 0 1 -3.416 -3.416v-365.05a3.416 3.416 0 0 1 3.416 -3.416" fill="url(#b)" opacity=".41081"/>
  <path transform="matrix(-.67337,.7393,.4281,.90373,0,0)" d="m66.016 831.94h0.63716a1.5623 1.5623 0 0 1 1.5623 1.5623v166.96a1.5623 1.5623 0 0 1 -1.5623 1.5623h-0.63716a1.5623 1.5623 0 0 1 -1.5623 -1.5623v-166.96a1.5623 1.5623 0 0 1 1.5623 -1.5623" fill="url(#ae)" opacity=".41081"/>
  <path transform="matrix(-.9252,.37948,.22682,.97394,0,0)" d="m-129.26 871.09h6.8586v137.39h-6.8586z" fill="url(#ad)" opacity=".41081"/>
  <path d="m313.98 575.18h2.4982a3.416 3.416 0 0 1 3.416 3.416v365.05a3.416 3.416 0 0 1 -3.416 3.416h-2.4982a3.416 3.416 0 0 1 -3.416 -3.416v-365.05a3.416 3.416 0 0 1 3.416 -3.416" fill="url(#b)" opacity=".41081"/>
  <path d="m310.02 799.14h8.9444a1.8706 1.8706 0 0 1 1.8706 1.8706v4.5167a1.8706 1.8706 0 0 1 -1.8706 1.8706h-8.9444a1.8706 1.8706 0 0 1 -1.8706 -1.8706v-4.5167a1.8706 1.8706 0 0 1 1.8706 -1.8706" fill="#d1d1cf"/>
  <path d="m311.16 930.22h7.6873a5.4421 5.4421 0 0 1 5.4421 5.4421v8.7587a5.4421 5.4421 0 0 1 -5.4421 5.4421h-7.6873a5.4421 5.4421 0 0 1 -5.4421 -5.4421v-8.7587a5.4421 5.4421 0 0 1 5.4421 -5.4421" fill="#29342c"/>
  <path transform="matrix(.93801,-.3466,.3342,.9425,0,0)" d="m41.594 1019.4h2.9194a3.7795 3.7795 0 0 1 3.7795 3.7795v6.0828a3.7795 3.7795 0 0 1 -3.7795 3.7795h-2.9194a3.7795 3.7795 0 0 1 -3.7795 -3.7795v-6.0828a3.7795 3.7795 0 0 1 3.7795 -3.7795" fill="#29342c"/>
  <path transform="matrix(.98869,-.14999,.13694,.99058,0,0)" d="m211.44 964.56h2.9194a3.7794 3.7794 0 0 1 3.7794 3.7794v6.0828a3.7794 3.7794 0 0 1 -3.7794 3.7794h-2.9194a3.7794 3.7794 0 0 1 -3.7794 -3.7794v-6.0828a3.7794 3.7794 0 0 1 3.7794 -3.7794" fill="#29342c"/>
  <path transform="matrix(-.85635,-.5164,-.50507,.86308,0,0)" d="m-671.45 692.86h2.9194a3.7794 3.7794 0 0 1 3.7794 3.7794v6.0828a3.7794 3.7794 0 0 1 -3.7794 3.7794h-2.9194a3.7794 3.7794 0 0 1 -3.7794 -3.7794v-6.0828a3.7794 3.7794 0 0 1 3.7794 -3.7794" fill="#29342c"/>
 </g>
 <g transform="matrix(.30621 0 0 .33524 392.56 -167.22)">
  <path d="m-704.58 1032.3 1.3438 83.985c-20.658 27.686-32.75 61.232-32.75 97.392 0 37.966 13.327 73.066 35.906 101.51 0 0-94.196 96.241-1.6384 94.275 92.453-1.9641 131.45-10.702 131.45-10.702 77.996-30.778 202.83-38.838 205.69-185.08v-0.481c-0.27575-91.962-78.712-166.92-177.03-171.1l-0.09375-1.563-162.88-8.2362z" fill="url(#ac)" stroke="#f4f4f6" stroke-opacity=".6828" stroke-width=".6169"/>
  <path transform="matrix(.99987 .016233 -.19413 .98098 0 0)" d="m-391.48 1078h137.4v13.569h-137.4z" fill="url(#ab)" stroke="#a7a29f" stroke-opacity=".6828" stroke-width=".24067"/>
  <path d="m-679.03 1033.5c-85.871-0.5878-169.25 60.794-189.6 144.87-17.316 66.457 5.9219 141.48 58.134 185.91 53.246 47.479 133.06 63.722 200.55 39.268 61.534-21.16 112.55-73.737 126.4-138.06 13.618-58.176-2.7936-122.56-43.547-166.15-38.005-42.267-94.833-67.294-151.94-65.844z" fill="#a39e9e" stroke="#a7a29f" stroke-opacity=".6828" stroke-width=".629"/>
  <path transform="matrix(.9968 -.07994 -.13051 .99145 0 0)" d="m-330.86 1175h116.37v12.625h-116.37z" fill="url(#aa)" stroke="#a7a29f" stroke-opacity=".6828" stroke-width=".21365"/>
  <path transform="matrix(.96943 -.24535 .068691 .99764 0 0)" d="m-652.99 1203.7h137.4v13.569h-137.4z" fill="url(#z)" stroke="#a7a29f" stroke-opacity=".6828" stroke-width=".24067"/>
  <path d="m-675.03 1041.5c-77.758-0.2265-153.75 51.045-179.12 125.03-19.896 55.852-9.8906 121.47 26.544 168.17 38.676 51.182 104 80.399 168.08 75.612 66.905-4.1726 131.08-44.535 160.35-105.28 24.919-50.593 24.674-113.19-2.5116-162.85-30.047-56.712-90.346-95.563-154.42-100.04-6.2894-0.5167-12.603-0.7494-18.913-0.6445z" fill="#353138" stroke="#f4f4f6" stroke-opacity=".6828" stroke-width=".629"/>
  <path transform="translate(582.86 105.71)" d="m-1065.7 1122.4a185.71 178.57 0 1 1 -7e-4 -0.4953" fill="url(#j)" stroke="#f4f4f6" stroke-opacity=".6828" stroke-width=".629"/>
  <path d="m-779.9 1142c-14.189 5.4428-7.9594 21.331-5.0304 31.652 2.0373 18.264 0.88967 36.869-0.64216 55.214-1.1956 12.024-3.0704 23.997-5.7229 35.819 5.4649-5.597 15.605-9.2345 14.611-18.501 3.1757-23.974 4.4279-48.196 3.5713-72.321 10.55 15.132 24.448 31.332 21.319 51.074-2.0403 15.874-5.1151 32.634-15.877 45.44-8.1667 5.0693-19.196 11.18-28.659 6.4586-4.7822-3.3208-2.5522-15.604-11.194-8.4988-13.629 8.1475 1.9379 27.299 14.649 21.013 16.551-4.2664 30.511-15.493 39.258-29.692 12.484-19.213 18.513-44.006 10.642-65.698-9.7161-18.872-22.381-36.138-36.28-52.268l-0.4092 0.196-0.236 0.113zm203.65 13.582c-12.276 3.8064-17.1 16.949-26.759 23.999-4.1905-12.33-18.984-5.2641-24.467 2.2898-5.5975 6.0115-10.789 12.517-14.332 19.885 1.2901-16.92-16.363-0.0672-13.373 8.5159 2.5112 5.7231-6.5815 22.876 4.7257 18.298 9.2584-8.1306 10.794-21.175 19.5-29.993 4.2127-3.7769 12.727-22.268 13.584-9.2326-1.4453 6.3106 2.2875 17.085 8.4867 7.509 9.3743-8.0803 14.009-20.14 23.799-27.728 6.2329 0.0094 0.90561 14.342-1.4473 19.353-6.1144 12.89-16.718 25.294-15.052 40.247 10.531 5.9693 13.966-12.456 14.623-20.073 4.8559-16.684 18.818-31.633 16.415-49.751-0.6373-2.3062-3.2001-4.2065-5.7038-3.3195zm-137.92 42.315c-17.473 15.464-28.161 39.185-24.428 62.056 9.5361 5.3549 14.624-11.56 18.367-18.31 4.8845-7.102 4.3099-21.425-3.7705-17.848 0.60848-9.3919 8.3871-21.368 18.987-14.528 7.4259 2.5766 24.05-15.222 9.2616-11.777-6.0541 1.3612-15.267 3.6168-18.417 0.4081zm54.882-8.6324c-14.142 9.1372-11.779 27.986-20.22 40.656-12.048 8.1577-10.745-14.536-7.8976-20.957 4.858-12.209-13.066 1.7189-12.612 7.4459-3.4475 8.619-3.8557 21.036 5.3054 26.379 9.5101 6.9975 17.605-16.574 20.358-2.9277 6.215 10.517 21.348-5.3994 20.456-8.3392-12.25 2.3689-11.387-12.073-7.9202-19.318 0.63083-6.2914 10.024-19.816 2.531-22.939z"/>
  <path d="m-565.44 1242c-6.9584 3.1852-17.888 5.6671-19.108 13.684 0.03933 8.5134-10.631 12.463-18.777 13.054-47.907 9.4594-97.168 14.041-144.48 25.71-14.622 4.4483-30.077 10.505-39.192 21.884-2.4257 7.8338 2.8475 17.399 11.649 19.797 7.4405-1.5941 16.267-6.5128 15.895-14.112-2.6867-4.207-6.5884-10.864-0.83205-14.54 10.264-5.488 23.092-3.3744 34.104-7.0183 37.775-8.0514 76.502-12.665 114.23-20.788 13.539-3.4211 27.712-6.6932 39.118-14.198 7.1291-5.7614 12.315-15.39 7.8529-23.675l-0.45906 0.2012z"/>
 </g>
 <g transform="matrix(.64896 0 0 .60706 395.16 -372.72)">
  <g transform="matrix(.97999 -.19904 .19904 .97999 -113.05 -396.27)">
   <path d="m-335.47 1268.8c-21.526 0.575-43.645 0.3271-64.467 6.065-3.9311 0.4662-7.1738 5.7847-2.5799 7.9081 12.305 5.3164 26.391 5.1113 39.634 6.4127 31.352 1.348 63.213 1.8705 94.126-3.7667 3.632-0.9188 11.342-2.1703 9.7733-7.4325-4.8278-5.3105-13.324-4.8242-19.941-6.3325-18.669-2.428-37.69-2.9088-56.545-2.8541z" fill="url(#f)" stroke="#2a3039" stroke-width=".96126"/>
   <path d="m-335.65 1233.3c-36.455 0.2826-65.703 3.9462-68.469 8.5h-0.21875v0.5625c-0.00191 0.0358 0 0.0903 0 0.125s-0.00191 0.0892 0 0.125v37.75c0.50742-5.0179 33.147-9.0625 73.281-9.0625 36.436 0 66.7 3.3464 72.344 7.7187v-35.031c0.62101-0.4811 0.9375-0.997 0.9375-1.5v-0.0312c-0.11198-5.0636-32.902-9.1563-73.281-9.1563h-4.5938zm-68.688 47.312v1.2188h0.78125c-0.46721-0.4-0.7393-0.8039-0.78125-1.2188z" fill="#fff"/>
   <path d="m-335.65 1233.3c-36.455 0.2826-65.703 3.9462-68.469 8.5h-0.21875v0.5625c-0.00191 0.0358 0 0.0903 0 0.125s-0.00191 0.0892 0 0.125v37.75c0.50742-5.0179 33.147-9.0625 73.281-9.0625 36.436 0 66.7 3.3464 72.344 7.7187v-35.031c0.62101-0.4811 0.9375-0.997 0.9375-1.5v-0.0312c-0.11198-5.0636-32.902-9.1563-73.281-9.1563h-4.5938zm-68.688 47.312v1.2188h0.78125c-0.46721-0.4-0.7393-0.8039-0.78125-1.2188z" fill="url(#g)" stroke="#2a3039"/>
  </g>
  <path d="m-195.68 886.44c-38.389 8.9844-67.284 20.762-64.888 26.533l0.01533 0.03693c4.6647-6.3862 32.069-16.677 66.659-24.593 38.263-8.7567 71.44-11.483 75.729-6.2344l0.26202 0.48576c0.66639-0.91231 0.90419-1.746 0.59874-2.4817l-0.33245-0.51008c-4.2894-5.2485-37.467-2.5223-75.729 6.2344l-2.3143 0.52963z" fill="#615d58" stroke="#f4f4f6" stroke-opacity=".6828" stroke-width=".6531"/>
  <path transform="matrix(.60394 0 0 .66278 -52.255 300.11)" d="m-132.28 892.23a6.0919 6.382 0 1 1 -2e-5 -0.0177" fill="url(#d)" stroke="#f4f4f6"/>
  <path transform="matrix(.60394 0 0 .66278 -128.26 314.04)" d="m-132.28 892.23a6.0919 6.382 0 1 1 -2e-5 -0.0177" fill="url(#d)" stroke="#f4f4f6"/>
  <path d="m-194.63 892.82c-38.389 8.9844-67.284 20.762-64.888 26.533l0.01533 0.03693c4.6647-6.3862 32.069-16.677 66.659-24.593 38.263-8.7567 71.44-11.483 75.729-6.2344l0.26202 0.48576c0.66639-0.91231 0.90419-1.746 0.59874-2.4817l-0.33245-0.51008c-4.2894-5.2485-37.467-2.5223-75.729 6.2344l-2.3143 0.52963z" fill="#615d58" stroke="#f4f4f6" stroke-opacity=".6828" stroke-width=".6531"/>
 </g>
 <g transform="matrix(.64896 0 0 .33172 79.931 -6.8263)">
  <path transform="matrix(.77768,.62865,-.54106,.84098,0,0)" d="m702.11 427.09h1.0661a1.6789 1.6789 0 0 1 1.6789 1.6789v179.41a1.6789 1.6789 0 0 1 -1.6789 1.6789h-1.0661a1.6789 1.6789 0 0 1 -1.6789 -1.6789v-179.41a1.6789 1.6789 0 0 1 1.6789 -1.6789" fill="url(#y)" opacity=".41081"/>
  <path d="m313.98 575.18h2.4982a3.416 3.416 0 0 1 3.416 3.416v365.05a3.416 3.416 0 0 1 -3.416 3.416h-2.4982a3.416 3.416 0 0 1 -3.416 -3.416v-365.05a3.416 3.416 0 0 1 3.416 -3.416" fill="url(#b)" opacity=".41081"/>
  <path transform="matrix(-.67337,.7393,.4281,.90373,0,0)" d="m66.016 831.94h0.63716a1.5623 1.5623 0 0 1 1.5623 1.5623v166.96a1.5623 1.5623 0 0 1 -1.5623 1.5623h-0.63716a1.5623 1.5623 0 0 1 -1.5623 -1.5623v-166.96a1.5623 1.5623 0 0 1 1.5623 -1.5623" fill="url(#x)" opacity=".41081"/>
  <path transform="matrix(-.9252,.37948,.22682,.97394,0,0)" d="m-129.26 871.09h6.8586v137.39h-6.8586z" fill="url(#w)" opacity=".41081"/>
  <path d="m313.98 575.18h2.4982a3.416 3.416 0 0 1 3.416 3.416v365.05a3.416 3.416 0 0 1 -3.416 3.416h-2.4982a3.416 3.416 0 0 1 -3.416 -3.416v-365.05a3.416 3.416 0 0 1 3.416 -3.416" fill="url(#b)" opacity=".41081"/>
  <path d="m310.02 799.14h8.9444a1.8706 1.8706 0 0 1 1.8706 1.8706v4.5167a1.8706 1.8706 0 0 1 -1.8706 1.8706h-8.9444a1.8706 1.8706 0 0 1 -1.8706 -1.8706v-4.5167a1.8706 1.8706 0 0 1 1.8706 -1.8706" fill="#d1d1cf"/>
  <path d="m311.16 930.22h7.6873a5.4421 5.4421 0 0 1 5.4421 5.4421v8.7587a5.4421 5.4421 0 0 1 -5.4421 5.4421h-7.6873a5.4421 5.4421 0 0 1 -5.4421 -5.4421v-8.7587a5.4421 5.4421 0 0 1 5.4421 -5.4421" fill="#29342c"/>
  <path transform="matrix(.93801,-.3466,.3342,.9425,0,0)" d="m41.594 1019.4h2.9194a3.7795 3.7795 0 0 1 3.7795 3.7795v6.0828a3.7795 3.7795 0 0 1 -3.7795 3.7795h-2.9194a3.7795 3.7795 0 0 1 -3.7795 -3.7795v-6.0828a3.7795 3.7795 0 0 1 3.7795 -3.7795" fill="#29342c"/>
  <path transform="matrix(.98869,-.14999,.13694,.99058,0,0)" d="m211.44 964.56h2.9194a3.7794 3.7794 0 0 1 3.7794 3.7794v6.0828a3.7794 3.7794 0 0 1 -3.7794 3.7794h-2.9194a3.7794 3.7794 0 0 1 -3.7794 -3.7794v-6.0828a3.7794 3.7794 0 0 1 3.7794 -3.7794" fill="#29342c"/>
  <path transform="matrix(-.85635,-.5164,-.50507,.86308,0,0)" d="m-671.45 692.86h2.9194a3.7794 3.7794 0 0 1 3.7794 3.7794v6.0828a3.7794 3.7794 0 0 1 -3.7794 3.7794h-2.9194a3.7794 3.7794 0 0 1 -3.7794 -3.7794v-6.0828a3.7794 3.7794 0 0 1 3.7794 -3.7794" fill="#29342c"/>
 </g>
 <g transform="matrix(-.51947 0 0 .4976 497.26 -174.02)">
  <path transform="matrix(.77768,.62865,-.54106,.84098,0,0)" d="m702.11 427.09h1.0661a1.6789 1.6789 0 0 1 1.6789 1.6789v179.41a1.6789 1.6789 0 0 1 -1.6789 1.6789h-1.0661a1.6789 1.6789 0 0 1 -1.6789 -1.6789v-179.41a1.6789 1.6789 0 0 1 1.6789 -1.6789" fill="url(#v)" opacity=".41081"/>
  <path d="m313.98 575.18h2.4982a3.416 3.416 0 0 1 3.416 3.416v365.05a3.416 3.416 0 0 1 -3.416 3.416h-2.4982a3.416 3.416 0 0 1 -3.416 -3.416v-365.05a3.416 3.416 0 0 1 3.416 -3.416" fill="url(#b)" opacity=".41081"/>
  <path transform="matrix(-.67337,.7393,.4281,.90373,0,0)" d="m66.016 831.94h0.63716a1.5623 1.5623 0 0 1 1.5623 1.5623v166.96a1.5623 1.5623 0 0 1 -1.5623 1.5623h-0.63716a1.5623 1.5623 0 0 1 -1.5623 -1.5623v-166.96a1.5623 1.5623 0 0 1 1.5623 -1.5623" fill="url(#u)" opacity=".41081"/>
  <path transform="matrix(-.9252,.37948,.22682,.97394,0,0)" d="m-129.26 871.09h6.8586v137.39h-6.8586z" fill="url(#t)" opacity=".41081"/>
  <path d="m313.98 575.18h2.4982a3.416 3.416 0 0 1 3.416 3.416v365.05a3.416 3.416 0 0 1 -3.416 3.416h-2.4982a3.416 3.416 0 0 1 -3.416 -3.416v-365.05a3.416 3.416 0 0 1 3.416 -3.416" fill="url(#b)" opacity=".41081"/>
  <path d="m310.02 799.14h8.9444a1.8706 1.8706 0 0 1 1.8706 1.8706v4.5167a1.8706 1.8706 0 0 1 -1.8706 1.8706h-8.9444a1.8706 1.8706 0 0 1 -1.8706 -1.8706v-4.5167a1.8706 1.8706 0 0 1 1.8706 -1.8706" fill="#d1d1cf"/>
  <path d="m311.16 930.22h7.6873a5.4421 5.4421 0 0 1 5.4421 5.4421v8.7587a5.4421 5.4421 0 0 1 -5.4421 5.4421h-7.6873a5.4421 5.4421 0 0 1 -5.4421 -5.4421v-8.7587a5.4421 5.4421 0 0 1 5.4421 -5.4421" fill="#29342c"/>
  <path transform="matrix(.93801,-.3466,.3342,.9425,0,0)" d="m41.594 1019.4h2.9194a3.7795 3.7795 0 0 1 3.7795 3.7795v6.0828a3.7795 3.7795 0 0 1 -3.7795 3.7795h-2.9194a3.7795 3.7795 0 0 1 -3.7795 -3.7795v-6.0828a3.7795 3.7795 0 0 1 3.7795 -3.7795" fill="#29342c"/>
  <path transform="matrix(.98869,-.14999,.13694,.99058,0,0)" d="m211.44 964.56h2.9194a3.7794 3.7794 0 0 1 3.7794 3.7794v6.0828a3.7794 3.7794 0 0 1 -3.7794 3.7794h-2.9194a3.7794 3.7794 0 0 1 -3.7794 -3.7794v-6.0828a3.7794 3.7794 0 0 1 3.7794 -3.7794" fill="#29342c"/>
  <path transform="matrix(-.85635,-.5164,-.50507,.86308,0,0)" d="m-671.45 692.86h2.9194a3.7794 3.7794 0 0 1 3.7794 3.7794v6.0828a3.7794 3.7794 0 0 1 -3.7794 3.7794h-2.9194a3.7794 3.7794 0 0 1 -3.7794 -3.7794v-6.0828a3.7794 3.7794 0 0 1 3.7794 -3.7794" fill="#29342c"/>
 </g>
 <g transform="matrix(-.34625 0 0 .36872 525.27 -88.942)">
  <path d="m382.98 608.46s35.437-6.3224 65.962-8.4299 34.736 4.215 56.138 0 12.982-12.645 29.473-16.86 20.35-3.9515 36.49 0 8.7716 11.591 28.069 15.806 21.754-1.0538 49.121 1.0537 60.349 7.3762 60.349 7.3762l-325.6 1.0537z" fill="#b2904d" fill-rule="evenodd"/>
  <path d="m550.43 583.06c-10.885 0.29969-21.522 4.6609-26.124 12.216-8.0498 4.546-7.784 5.1834 3.2654 4.478 20.828-0.10196 42.308-0.08968 62.732-0.26266-11.301-2.8355-13.601-13.717-25.78-14.969-4.6044-0.91031-9.3435-1.8086-14.093-1.4625z" fill="url(#s)" fill-rule="evenodd"/>
  <path d="m535.66 564.71h32.875a3.9125 3.9125 0 0 1 3.9125 3.9125v11.195a3.9125 3.9125 0 0 1 -3.9125 3.9125h-32.875a3.9125 3.9125 0 0 1 -3.9125 -3.9125v-11.195a3.9125 3.9125 0 0 1 3.9125 -3.9125" fill="#4d4e47"/>
  <path d="m382.98 614.41s35.437 6.3224 65.962 8.4299 34.736-4.215 56.138 0 12.982 12.645 29.473 16.86 20.35 3.9515 36.49 0 8.7716-11.591 28.069-15.806 21.754 1.0538 49.121-1.0537 60.349-7.3762 60.349-7.3762l-325.6-1.0537z" fill="#b4904a" fill-rule="evenodd"/>
  <path d="m550.43 639.81c-10.885-0.29969-21.522-4.6609-26.124-12.216-8.0498-4.546-7.784-5.1834 3.2654-4.478 20.828 0.10196 42.308 0.08968 62.732 0.26266-11.301 2.8355-13.601 13.717-25.78 14.969-4.6044 0.91031-9.3435 1.8086-14.093 1.4625z" fill="url(#r)" fill-rule="evenodd"/>
  <path transform="scale(1,-1)" d="m535.66-658.15h32.875a3.9125 3.9125 0 0 1 3.9125 3.9125v11.195a3.9125 3.9125 0 0 1 -3.9125 3.9125h-32.875a3.9125 3.9125 0 0 1 -3.9125 -3.9125v-11.195a3.9125 3.9125 0 0 1 3.9125 -3.9125" fill="#4d4e47"/>
  <path d="m546.34 646.5h10.42a3.9125 3.9125 0 0 1 3.9125 3.9125v20.705a3.9125 3.9125 0 0 1 -3.9125 3.9125h-10.42a3.9125 3.9125 0 0 1 -3.9125 -3.9125v-20.705a3.9125 3.9125 0 0 1 3.9125 -3.9125" fill="#4d4e47"/>
 </g>
</svg>
