<?xml version="1.0" encoding="UTF-8"?>
<svg viewBox="0 0 320 150" xmlns="http://www.w3.org/2000/svg">
 <g stroke="#000">
  <path d="m7.4119 12.665c83.218 58.425 138.3 16.548 152.06 47.077 12.988-31.038 60.964 9.3217 149.29-51.17-77.582 194.79-256.08 151.09-301.35 4.0936z" fill="#d40000" stroke-width="2"/>
  <path d="m15.092 30.702c85.332 49.331 177.88 60.37 284.46-3.072-30.928 39.233-57.509 80.062-137.62 86.013-93.706-2.202-131.65-58.354-146.84-82.941z" fill="#1a1a1a"/>
  <g fill="#fff">
   <path d="m126.54 71.13l-0.247 25.924c-3.0202 17.307 34.216 19.325 32.829 2.2256l-0.247-25.31c-9.9174-0.21436-23.534-1.0903-32.335-2.84z"/>
   <path d="m160.8 73.578c10.219 0.50391 21.137-1.095 32.331-2.5419l0.9969 24.379c-4.8966 23.987-35.992 16.929-32.96 5.0125l-0.3674-26.85z"/>
   <path d="m194.95 70.196l28.839-6.6389-0.7198 27.832c-0.39551 8.7446-18.267 18.206-27.737 4.8019l-0.3824-25.995z"/>
   <path d="m225.1 62.586l25.29-8.4202-0.015 24.173c-0.80655 3.4738-15.078 18.25-24.923 8.2353l-0.3524-23.988h3.1e-5z"/>
   <path d="m251.55 53.769l17.208-8.0677 1.1022 13.226c2.4712 3.5278-12.732 18.81-17.943 13.812l-0.3674-18.97z"/>
   <path d="m269.92 44.584c1.4696 0 13.961-6.6131 13.961-6.6131l0.2065 7.4382c-2.9371 4.2749-9.8424 15.42-13.564 10.459l-0.6038-11.284z"/>
   <path d="m284.62 36.869l1.1022 6.9805c3.9871-1.51 6.8017-8.3744 9.9197-12.492l-11.022 5.5109z"/>
   <path d="m96.143 65.526l-0.3674 30.494c7.455 11.687 28.032 11.851 28.708 5.904l0.3417-30.388c-10.968-1.837-20.586-4.1724-28.683-6.0094z"/>
   <path d="m69.323 57.443l-0.7348 26.452c-1.8469 0.42621 14.515 13.274 24.641 9.5523 1.4218-0.52252 1.4696-28.29 1.4696-28.29-6.9518-1.5633-16.465-4.1929-25.376-7.7153z"/>
   <path d="m49.851 49.728l-0.734 20.574c4.066 5.421 11.527 14.469 18.31 9.537l0.059-22.763-17.635-7.348z"/>
   <path d="m33.334 41.982l-0.015 11.052c4.5286 7.6315 11.257 15.713 15.401 13.276v-16.612l-15.386-7.7153h3.1e-5z"/>
   <path d="m20.092 35.032c1.7234 7.3134 10.891 19.113 12.124 19.839l-0.3674-13.226-11.757-6.6132z"/>
  </g>
 </g>
</svg>
